<?xml version="1.0" standalone="no"?><!DOCTYPE svg PUBLIC "-//W3C//DTD SVG 1.1//EN" "http://www.w3.org/Graphics/SVG/1.1/DTD/svg11.dtd"><svg class="icon" width="128px" height="128.00px" viewBox="0 0 1024 1024" version="1.1" xmlns="http://www.w3.org/2000/svg"><path fill="#333333" d="M199.2 728.5c0-9.3 3.7-18.3 10.3-24.8 6.6-6.6 15.5-10.3 24.9-10.3h562.3c9.3 0 18.3 3.7 24.8 10.3 6.6 6.6 10.3 15.5 10.3 24.8s-3.7 18.3-10.3 24.8c-6.6 6.6-15.5 10.3-24.8 10.3H234.3c-9.3 0-18.3-3.7-24.9-10.3-6.5-6.6-10.2-15.5-10.2-24.8z m0-210.8c0-9.3 3.7-18.3 10.3-24.8 6.6-6.6 15.5-10.3 24.9-10.3h421.8c9.3 0 18.3 3.7 24.8 10.3 6.6 6.6 10.3 15.5 10.3 24.8s-3.7 18.3-10.3 24.8c-6.6 6.6-15.5 10.3-24.9 10.3H234.3c-9.3 0-18.3-3.7-24.9-10.3-6.5-6.6-10.2-15.5-10.2-24.8z m0-210.8c0-9.3 3.7-18.3 10.3-24.8 6.6-6.6 15.5-10.3 24.9-10.3h281.2c9.3 0 18.3 3.7 24.8 10.3 6.6 6.6 10.3 15.5 10.3 24.8s-3.7 18.3-10.3 24.8c-6.6 6.6-15.5 10.3-24.8 10.3H234.3c-9.3 0-18.3-3.7-24.8-10.3-6.6-6.5-10.3-15.5-10.3-24.8z m0 0" /></svg>